<svg xmlns="http://www.w3.org/2000/svg" width="16" height="13.431" viewBox="0 0 16 13.431">
    <g data-name="Group 10284">
        <path data-name="Path 3415" d="M1406.342 324.9h11.4c.12 0 .24-.005.36 0a.958.958 0 0 1-.016 1.915c-.119.007-.24 0-.36 0h-11.4c.149.154.242.255.339.352l3.672 3.674a.965.965 0 0 1 .289 1.154.95.95 0 0 1-1.409.406 2.19 2.19 0 0 1-.3-.265q-2.772-2.766-5.542-5.535a.967.967 0 0 1 .011-1.506l5.457-5.45c.085-.085.167-.173.257-.251a.947.947 0 0 1 1.332.036.928.928 0 0 1 .026 1.3c-.338.375-.708.723-1.066 1.081l-2.74 2.741c-.082.094-.167.191-.31.348z" style="fill:#505050" transform="translate(-1403.029 -319.14)"/>
    </g>
</svg>
