<svg xmlns="http://www.w3.org/2000/svg" width="21.559" height="21.559" viewBox="0 0 21.559 21.559">
    <g data-name="Group 12160">
        <path data-name="Path 8695" d="M-687.6 185.165c0-.537-.006-1 0-1.459a.772.772 0 0 1 .749-.841.772.772 0 0 1 .778.854c.007.46 0 .921 0 1.414h9.246v-1.373c.006-.558.312-.9.78-.895.452.01.742.348.748.885.005.447 0 .894 0 1.388.172.01.32.024.467.026.7.011 1.406-.026 2.1.038a2.232 2.232 0 0 1 2.049 2.233q.017 7.367 0 14.735a2.26 2.26 0 0 1-2.269 2.245q-8.5.016-17 0a2.267 2.267 0 0 1-2.27-2.289q-.015-7.325 0-14.65a2.249 2.249 0 0 1 2.094-2.281c.655-.058 1.317-.023 1.977-.03h.551zm-3.07 6.97c-.007.161-.019.3-.019.434v9.257c0 .8.256 1.059 1.058 1.059h16.364c.807 0 1.063-.253 1.063-1.054v-9.257c0-.147-.012-.294-.019-.44zm4.668-5.4c-.038.055-.053.066-.053.077-.005.449-.006.9-.015 1.346a.766.766 0 0 1-.773.855c-.461 0-.749-.333-.756-.872-.005-.459 0-.918 0-1.421h-1.634c-1.37 0-1.455.085-1.455 1.449v2.349h18.48c0-1.044.011-2.052-.006-3.059a.645.645 0 0 0-.558-.7c-.83-.048-1.665-.015-2.52-.015v1.39c-.006.541-.291.87-.751.877-.478.008-.772-.327-.778-.892v-1.386z" style="fill:#fff" transform="translate(692.222 -182.864)"/>
        <path data-name="Rectangle 1061" transform="translate(3.79 10.823)" style="fill:#fff" d="M0 0h3.035v3.035H0z"/>
        <path data-name="Rectangle 1062" transform="translate(9.262 10.823)" style="fill:#fff" d="M0 0h3.035v3.035H0z"/>
        <path data-name="Rectangle 1063" transform="translate(14.734 10.823)" style="fill:#fff" d="M0 0h3.035v3.035H0z"/>
        <path data-name="Rectangle 1064" transform="translate(3.79 15.437)" style="fill:#fff" d="M0 0h3.035v3.035H0z"/>
        <path data-name="Rectangle 1065" transform="translate(9.262 15.437)" style="fill:#fff" d="M0 0h3.035v3.035H0z"/>
        <path data-name="Rectangle 1066" transform="translate(14.734 15.437)" style="fill:#fff" d="M0 0h3.035v3.035H0z"/>
    </g>
</svg>
