<svg xmlns="http://www.w3.org/2000/svg" width="15.564" height="12.548" viewBox="0 0 15.564 12.548">
    <g data-name="Group 12068">
        <path data-name="Path 8650" d="M-4561.522 4059.664h-6.532c-.86 0-1.239-.381-1.239-1.241v-8.051a1.076 1.076 0 0 1 1.208-1.222c.81 0 1.62-.006 2.43 0a.348.348 0 0 0 .357-.206c.268-.5.555-.987.829-1.484a.612.612 0 0 1 .589-.347q2.369.008 4.739 0a.627.627 0 0 1 .612.359c.252.473.528.934.772 1.41a.422.422 0 0 0 .442.27c.79-.015 1.58-.008 2.37-.005a1.075 1.075 0 0 1 1.215 1.214v8.082c0 .833-.389 1.218-1.231 1.219zm.012-1.987a3.85 3.85 0 0 0 3.832-3.857 3.844 3.844 0 0 0-3.837-3.819 3.843 3.843 0 0 0-3.829 3.858 3.834 3.834 0 0 0 3.834 3.818z" transform="translate(4569.293 -4047.117)" style="fill:#fff"/>
        <path data-name="Path 8651" d="M-4548.3 4062.775a1.913 1.913 0 0 1 1.925 1.9 1.926 1.926 0 0 1-1.929 1.933 1.926 1.926 0 0 1-1.911-1.921 1.915 1.915 0 0 1 1.915-1.912z" transform="translate(4556.077 -4057.964)" style="fill:#fff"/>
    </g>
</svg>
