<svg data-name="Group 12057" xmlns="http://www.w3.org/2000/svg" width="15.564" height="15.561" viewBox="0 0 15.564 15.561">
    <path data-name="Path 8569" d="M-6285.171 5687.586h4.557a1.658 1.658 0 0 1 1.807 1.814v9.141a1.671 1.671 0 0 1-1.837 1.819h-9.114a1.68 1.68 0 0 1-1.827-1.834v-9.112a1.672 1.672 0 0 1 1.828-1.829q2.293-.001 4.586.001zm0 1.107h-4.558c-.564 0-.75.182-.75.742v9.083c0 .539.195.733.733.733h9.116c.522 0 .713-.2.713-.717v-9.113c0-.546-.183-.729-.728-.729z" transform="translate(6291.586 -5684.802)" style="fill:#fff"/>
    <path data-name="Path 8570" d="M-6279.644 5681.016h4.864a1.669 1.669 0 0 1 1.794 1.776v9.814a1.654 1.654 0 0 1-1.584 1.735.554.554 0 0 1-.632-.509.562.562 0 0 1 .525-.595c.428-.071.584-.237.584-.664v-9.785c0-.456-.215-.665-.678-.666h-9.757c-.445 0-.6.146-.683.6a.561.561 0 0 1-.607.511.552.552 0 0 1-.5-.614 1.649 1.649 0 0 1 1.688-1.6c1.664-.007 3.33-.003 4.986-.003z" transform="translate(6288.548 -5681.015)" style="fill:#fff"/>
</svg>
