<svg data-name="Group 12136" xmlns="http://www.w3.org/2000/svg" width="11.256" height="11.253" viewBox="0 0 11.256 11.253">
    <path data-name="Path 8569" d="M-6286.947 5687.586h3.3a1.2 1.2 0 0 1 1.307 1.313v6.61a1.208 1.208 0 0 1-1.328 1.315h-6.591a1.215 1.215 0 0 1-1.321-1.327v-6.589a1.209 1.209 0 0 1 1.321-1.323zm0 .8h-3.3c-.408 0-.544.132-.544.536v6.569c0 .391.142.53.531.53h6.593c.377 0 .516-.141.516-.518v-6.591c0-.4-.133-.527-.527-.527l-3.267.001z" transform="translate(6291.586 -5685.573)" style="fill:#858494"/>
    <path data-name="Path 8570" d="M-6281.49 5681.015h3.517a1.208 1.208 0 0 1 1.3 1.285v7.1a1.2 1.2 0 0 1-1.145 1.255.4.4 0 0 1-.457-.368.4.4 0 0 1 .379-.43c.31-.052.422-.172.422-.48v-7.076c0-.33-.156-.481-.49-.481h-7.057c-.322 0-.437.105-.493.433a.405.405 0 0 1-.439.368.4.4 0 0 1-.359-.443 1.192 1.192 0 0 1 1.22-1.158c1.199-.008 2.401-.005 3.602-.005z" transform="translate(6287.931 -5681.014)" style="fill:#858494"/>
</svg>
