<svg xmlns="http://www.w3.org/2000/svg" width="15.528" height="15.56" viewBox="0 0 15.528 15.56">
    <g data-name="Group 12239">
        <path data-name="Path 8693" d="M-304.729 342.85a7.794 7.794 0 0 1-7.724-7.227 7.727 7.727 0 0 1 6.282-8.2 9.928 9.928 0 0 1 1.355-.135.594.594 0 0 1 .685.566c.01.344-.246.58-.657.6a6.462 6.462 0 0 0-5.67 3.376 6.584 6.584 0 0 0 5.167 9.786 6.591 6.591 0 0 0 7.168-6.362c.024-.532.22-.792.593-.789s.587.3.577.829a7.784 7.784 0 0 1-6.424 7.4c-.447.074-.901.106-1.352.156z" transform="translate(312.48 -327.29)" style="fill:#fff"/>
        <path data-name="Path 8694" d="M-299.187 339.6a2.453 2.453 0 0 1 .214-.291q3.292-3.288 6.588-6.572c.408-.406.732-.46 1.013-.169.266.275.205.61-.18.994l-7.1 7.084c-.476.474-.73.47-1.181-.018-.9-.981-1.814-1.955-2.7-2.95a.814.814 0 0 1-.2-.589.76.76 0 0 1 .4-.434.5.5 0 0 1 .6.174c.365.392.726.787 1.089 1.181z" transform="translate(306.464 -330.437)" style="fill:#fff"/>
    </g>
</svg>
