<svg xmlns="http://www.w3.org/2000/svg" width="11.185" height="11.208" viewBox="0 0 11.185 11.208">
    <g data-name="Group 12149">
        <path data-name="Path 8693" d="M-306.9 338.5a5.614 5.614 0 0 1-5.563-5.206 5.566 5.566 0 0 1 4.525-5.9 7.146 7.146 0 0 1 .976-.1.428.428 0 0 1 .494.408c.007.248-.177.417-.474.43a4.655 4.655 0 0 0-4.084 2.432 4.742 4.742 0 0 0 3.722 7.049 4.747 4.747 0 0 0 5.163-4.582c.017-.383.159-.571.427-.568s.423.213.416.6a5.607 5.607 0 0 1-4.627 5.332c-.32.044-.647.067-.975.105z" transform="translate(312.48 -327.29)" style="fill:#49465f"/>
        <path data-name="Path 8694" d="M-300.182 337.58a1.766 1.766 0 0 1 .154-.21q2.371-2.369 4.745-4.734c.294-.293.527-.331.73-.122s.148.439-.129.716l-5.117 5.1c-.343.342-.526.339-.85-.013-.651-.707-1.307-1.408-1.947-2.125a.586.586 0 0 1-.143-.424.548.548 0 0 1 .286-.313.363.363 0 0 1 .431.125c.263.282.523.567.784.851z" transform="translate(305.423 -330.981)" style="fill:#49465f"/>
    </g>
</svg>
