<svg xmlns="http://www.w3.org/2000/svg" width="15.709" height="15.692" viewBox="0 0 15.709 15.692">
    <g data-name="Group 12065">
        <path data-name="Path 8642" d="M-4252.674 3681.52c-1.522 0-3.047-.044-4.567.016a2.01 2.01 0 0 1-2-2.022c.023-1.931.006-3.863.006-5.794v-3.219a1.966 1.966 0 0 1 2.026-2.037h5.089a.665.665 0 0 1 .683.417.551.551 0 0 1-.153.694 1.123 1.123 0 0 1-.617.194c-1.584.015-3.168.008-4.752.009h-.306a.65.65 0 0 0-.662.663c-.013.265 0 .531 0 .8v8.125c0 .668.208.872.884.872h8.737c.636 0 .848-.211.848-.843v-4.936a.661.661 0 0 1 .6-.751.643.643 0 0 1 .7.7c.006 1.083 0 2.167 0 3.25 0 .644-.007 1.288 0 1.932a1.979 1.979 0 0 1-1.978 1.946c-1.511-.058-3.025-.016-4.538-.016z" transform="translate(4259.245 -3665.845)" style="fill:#fff"/>
        <path data-name="Path 8643" d="m-4230.851 3666.462 2.295 2.3-.158.174q-2.416 2.418-4.838 4.831a.96.96 0 0 1-.435.251c-.686.155-1.378.289-2.07.419-.406.076-.556-.087-.476-.491.136-.681.267-1.362.413-2.041a.788.788 0 0 1 .187-.372q2.5-2.512 5.005-5.011a.582.582 0 0 1 .077-.06z" transform="translate(4242.145 -3664.337)" style="fill:#fff"/>
        <path data-name="Path 8644" d="m-4207.918 3661.493-2.235-2.233a10.961 10.961 0 0 1 1-1.075 1.588 1.588 0 0 1 2.163.179 1.6 1.6 0 0 1 .047 2.173c-.299.343-.65.642-.975.956z" transform="translate(4222.248 -3657.84)" style="fill:#fff"/>
    </g>
</svg>
