<svg xmlns="http://www.w3.org/2000/svg" width="11.086" height="8.447" viewBox="0 0 11.086 8.447">
    <g data-name="Group 12071">
        <path data-name="Path 4872" d="M-3509.7 3415.3h-4.436a.99.99 0 0 1-1.074-.774 1.524 1.524 0 0 1-.025-.322v-6.253a.986.986 0 0 1 1.081-1.094h8.915a.99.99 0 0 1 1.089 1.106v6.21a1 1 0 0 1-1.135 1.127h-4.415zm-4.259-7.781 4.225 4.335 4.338-4.335zm8.64 7.117-3.079-3.077-.807.811c-.452.452-.482.452-.93.007l-.8-.8-3.054 3.055zm-9.251-6.644v6.1l3.011-3.011zm9.753 6.118v-6.068l-3.035 3.033z" style="fill:#6a5ae0" transform="translate(3515.238 -3406.855)"/>
    </g>
</svg>
