<svg xmlns="http://www.w3.org/2000/svg" width="14.707" height="11.205" viewBox="0 0 14.707 11.205">
    <g data-name="Group 11914">
        <path data-name="Path 4872" d="M-3507.892 3418.06h-5.885a1.313 1.313 0 0 1-1.425-1.027 2.049 2.049 0 0 1-.034-.427v-8.3a1.308 1.308 0 0 1 1.433-1.451q5.914-.006 11.828 0a1.313 1.313 0 0 1 1.445 1.468v8.239a1.33 1.33 0 0 1-1.505 1.5q-2.929 0-5.857-.002zm-5.65-10.322 5.6 5.751 5.754-5.751zm11.462 9.442-4.084-4.083-1.071 1.075c-.6.6-.639.6-1.235.01l-1.065-1.055-4.052 4.053zm-12.273-8.815v8.093l3.995-4zm12.938 8.116v-8.05l-4.025 4.025z" transform="translate(3515.238 -3406.855)" style="fill:#6a5ae0"/>
    </g>
</svg>
