<svg xmlns="http://www.w3.org/2000/svg" width="16.047" height="16.049" viewBox="0 0 16.047 16.049">
    <g data-name="Group 6410">
        <path data-name="Path 3154" d="M-2138.423-1759.244a7.969 7.969 0 0 1 7.869 6.85 7.875 7.875 0 0 1-1.155 5.419.8.8 0 0 1-1.141.365.811.811 0 0 1-.191-1.2 6.482 6.482 0 0 0-4.068-9.771 6.489 6.489 0 0 0-7.85 5.526 6.471 6.471 0 0 0 5.385 7.2 6.3 6.3 0 0 0 2.743-.14 1.4 1.4 0 0 1 .523-.062.775.775 0 0 1 .656.738.79.79 0 0 1-.593.794 7.3 7.3 0 0 1-2.7.316 7.711 7.711 0 0 1-6.957-4.945 8.038 8.038 0 0 1 6.511-11.019c.381-.053.77-.059.968-.071z" transform="translate(2146.513 1759.244)" style="fill:#ff3752"/>
        <path data-name="Path 3155" d="M-2126.92-1746.8c0-.818-.008-1.636 0-2.454a.777.777 0 0 1 .849-.834.768.768 0 0 1 .719.806c.013.535 0 1.07 0 1.6 0 1.1.008 2.2 0 3.3a.785.785 0 0 1-1.134.771.814.814 0 0 1-.439-.806c.007-.792.005-1.59.005-2.383z" transform="translate(2134.116 1753.454)" style="fill:#ff3752"/>
        <path data-name="Path 3156" d="M-2125.337-1728.392a.772.772 0 0 1-.778.777.775.775 0 0 1-.785-.77.777.777 0 0 1 .794-.793.776.776 0 0 1 .769.786z" transform="translate(2134.102 1740.219)" style="fill:#ff3752"/>
    </g>
</svg>
