<svg xmlns="http://www.w3.org/2000/svg" width="23.976" height="24" viewBox="0 0 23.976 24">
    <g data-name="Group 7">
        <path data-name="Path 1" d="M508.653 292.826v-.007l-3.722-2.948a12.117 12.117 0 0 0-1.063 7.326 11.592 11.592 0 0 0 1.289 3.735l3.615-3.084a7.242 7.242 0 0 1-.119-5.022z" transform="translate(-503.706 -283.179)" style="fill:#fbbb00"/>
        <path data-name="Path 2" d="M524.571 223.658a7.356 7.356 0 0 1 7.523.873l2.757-3.584a11.944 11.944 0 0 0-18.046 4.182l3.722 2.948a7.177 7.177 0 0 1 4.044-4.419z" transform="translate(-515.578 -218.436)" style="fill:#f14336"/>
        <path data-name="Path 3" d="M643.763 322.452h-11.949V327h6.986a7.188 7.188 0 0 1-3.282 4.114l3.671 3.019a11.967 11.967 0 0 0 4.561-8.653c.075-1.004.013-2.017.013-3.028z" transform="translate(-619.812 -312.707)" style="fill:#518ef8"/>
        <path data-name="Path 4" d="M527.608 379.45a7.352 7.352 0 0 1-4.781-4.438l-3.615 3.084a12.029 12.029 0 0 0 12.939 5.988 12.263 12.263 0 0 0 4.989-2.316l-3.671-3.019a7.367 7.367 0 0 1-5.861.701z" transform="translate(-517.759 -360.342)" style="fill:#28b446"/>
    </g>
</svg>
