<svg xmlns="http://www.w3.org/2000/svg" width="16.62" height="15.561" viewBox="0 0 16.62 15.561">
    <g data-name="Group 12163">
        <path data-name="Path 8696" d="M-1912.819-1248.609c.129-.121.21-.207.3-.28a.5.5 0 0 1 .7.028.464.464 0 0 1 .038.674q-.674.722-1.4 1.4a.454.454 0 0 1-.69-.078 41.581 41.581 0 0 1-1.1-1.643.486.486 0 0 1 .168-.68.5.5 0 0 1 .673.1 3.592 3.592 0 0 1 .225.295l.128-.52a7.781 7.781 0 0 1 7.833-5.921 7.8 7.8 0 0 1 7.356 6.237 7.771 7.771 0 0 1-6.78 9.27 7.334 7.334 0 0 1-6.838-2.824 3.379 3.379 0 0 1-.1-.129.525.525 0 0 1 .063-.775.537.537 0 0 1 .766.144 10.337 10.337 0 0 0 1.018 1.084 6.734 6.734 0 0 0 10.849-3.9 6.737 6.737 0 0 0-5.509-7.978 6.769 6.769 0 0 0-7.709 5.294 1.5 1.5 0 0 0 .009.202z" transform="translate(1915.038 1255.242)" style="fill:#6a5ae0"/>
        <path data-name="Path 8697" d="M-1876.453-1239.253c0 .659.009 1.319 0 1.978a.492.492 0 0 0 .224.458c.85.63 1.7 1.266 2.531 1.918a.853.853 0 0 1 .318.487.531.531 0 0 1-.238.441.689.689 0 0 1-.562-.02 12.335 12.335 0 0 1-1.046-.763c-.648-.486-1.293-.977-1.947-1.455a.713.713 0 0 1-.318-.63c.007-1.481 0-2.961 0-4.442 0-.4.2-.641.528-.635s.509.242.51.654c.002.669 0 1.339 0 2.009z" transform="translate(1885.538 1244.772)" style="fill:#6a5ae0"/>
    </g>
</svg>
