<svg xmlns="http://www.w3.org/2000/svg" width="12.405" height="14.706" viewBox="0 0 12.405 14.706">
    <g data-name="Group 12067">
        <path data-name="Path 8648" d="M-4223.029 4097.805a6.532 6.532 0 0 1-1.155 3.659 18.344 18.344 0 0 1-3.524 3.866c-.279.248-.551.5-.841.739a1 1 0 0 1-1.32.011 23.9 23.9 0 0 1-4.036-4.1 7.649 7.649 0 0 1-1.463-3.355 6.183 6.183 0 0 1 3.271-6.305 6.229 6.229 0 0 1 9.066 4.911c.018.19.002.383.002.574zm-.84-.166a8.526 8.526 0 0 0-.109-.859 5.33 5.33 0 0 0-8.592-3.1 5.081 5.081 0 0 0-1.932 4.88 6.545 6.545 0 0 0 1.286 2.905 24.017 24.017 0 0 0 3.826 3.9c.137.123.253.083.376-.029.325-.3.656-.585.984-.878a16.908 16.908 0 0 0 3.072-3.388 6.109 6.109 0 0 0 1.089-3.43z" style="fill:#6a5ae0" transform="translate(4235.427 -4091.616)"/>
        <path data-name="Path 8649" d="M-4223.935 4099.775a2.747 2.747 0 0 1 2.7 2.776 2.756 2.756 0 0 1-2.81 2.7 2.76 2.76 0 0 1-2.673-2.78 2.747 2.747 0 0 1 2.783-2.696zm-.05 4.614a1.894 1.894 0 0 0 1.891-1.875 1.886 1.886 0 0 0-1.884-1.877 1.885 1.885 0 0 0-1.875 1.857 1.894 1.894 0 0 0 1.868 1.895z" transform="translate(4230.182 -4096.527)" style="fill:#6a5ae0"/>
    </g>
</svg>
