<svg xmlns="http://www.w3.org/2000/svg" width="11.268" height="15.021" viewBox="0 0 11.268 15.021">
    <g data-name="Group 11919">
        <path data-name="Path 4873" d="M-3770.052 3333.131c0-.647-.009-1.27 0-1.893a4.2 4.2 0 0 1 3.394-4.1 4.216 4.216 0 0 1 5.066 4.1c.011.622 0 1.245 0 1.882a2.124 2.124 0 0 0 .211.061 1.335 1.335 0 0 1 1.184 1.379q.015 3.053 0 6.108a1.358 1.358 0 0 1-1.511 1.411q-3.9.007-7.792 0h-.5a1.369 1.369 0 0 1-1.454-1.472c-.007-1.61 0-3.219 0-4.83 0-.395-.005-.79 0-1.184a1.355 1.355 0 0 1 1.215-1.417c.054-.01.103-.024.187-.045zm4.226 8h4.083c.492 0 .612-.119.613-.6v-5.827c0-.48-.126-.606-.616-.606h-8.135c-.508 0-.628.122-.628.624v5.765c0 .545.1.647.663.647zm3.295-8c0-.674.022-1.317 0-1.957a3.259 3.259 0 0 0-2.826-3.153 3.269 3.269 0 0 0-3.606 2.313 11.833 11.833 0 0 0-.146 2.8z" transform="translate(3771.454 -3327.059)" style="fill:#6a5ae0"/>
        <path data-name="Path 4874" d="M-3755.805 3354.189a1.32 1.32 0 0 1-.729 1.194.335.335 0 0 0-.211.362c.009.259.011.52-.006.778a.44.44 0 0 1-.476.462.441.441 0 0 1-.454-.456 2.901 2.901 0 0 1-.005-.28c.009-.417.034-.776-.45-1.055a1.287 1.287 0 0 1-.333-1.68 1.394 1.394 0 0 1 1.6-.71 1.382 1.382 0 0 1 1.064 1.385zm-.949-.011a.445.445 0 0 0-.459-.479.444.444 0 0 0-.465.473.431.431 0 0 0 .443.458.434.434 0 0 0 .481-.452z" transform="translate(3762.848 -3344.311)" style="fill:#6a5ae0"/>
    </g>
</svg>
