<svg xmlns="http://www.w3.org/2000/svg" width="13.23" height="14.186" viewBox="0 0 13.23 14.186">
    <g data-name="Group 12237">
        <path data-name="Path 8749" d="M642.289 342.98v-5.166a1.781 1.781 0 0 1 1.9-1.916c1.676-.006 3.352 0 5.027 0a1.356 1.356 0 0 1 .3.029.581.581 0 0 1 .024 1.121 1.516 1.516 0 0 1-.384.038h-4.916c-.588 0-.778.192-.778.785v10.249c0 .575.193.768.767.768h5c.457 0 .721.216.727.583a.561.561 0 0 1-.456.58 1.619 1.619 0 0 1-.331.026h-4.916a1.8 1.8 0 0 1-1.97-1.962q.006-2.566.006-5.135z" transform="translate(-642.289 -335.895)" style="fill:#6a5ae0"/>
        <path data-name="Path 8750" d="m672.631 353.859-2.273-2.363a2.432 2.432 0 0 1-.226-.243.573.573 0 0 1 .061-.76.6.6 0 0 1 .763-.054 1.483 1.483 0 0 1 .164.149l3.361 3.315c.418.413.418.691 0 1.1q-1.689 1.668-3.381 3.334a.625.625 0 0 1-.749.186.588.588 0 0 1-.109-.995c.747-.746 1.5-1.485 2.252-2.225a.633.633 0 0 0 .187-.244c-.094 0-.188-.012-.282-.012h-6.276a1.787 1.787 0 0 1-.386-.031.579.579 0 0 1 0-1.127 1.77 1.77 0 0 1 .385-.03h6.248z" transform="translate(-661.564 -347.361)" style="fill:#6a5ae0"/>
    </g>
</svg>
