<svg xmlns="http://www.w3.org/2000/svg" width="6.419" height="11.655" viewBox="0 0 6.419 11.655">
    <g data-name="Group 12166">
        <path data-name="Path 8698" d="M-2864.921-1511.4c-.065-.069-.12-.129-.178-.187q-2.269-2.269-4.535-4.541a1.008 1.008 0 0 1-.255-.437.512.512 0 0 1 .271-.576.561.561 0 0 1 .659.043 2.125 2.125 0 0 1 .183.17l4.989 4.987c.4.4.4.682 0 1.084l-5.021 5.021a.635.635 0 0 1-.687.233.582.582 0 0 1-.28-.923 2.229 2.229 0 0 1 .172-.181l4.505-4.505c.058-.057.112-.118.177-.188z" style="fill:#6a5ae0" transform="translate(2869.907 1517.226)"/>
    </g>
</svg>
