<svg xmlns="http://www.w3.org/2000/svg" width="12.654" height="14.954" viewBox="0 0 12.654 14.954">
    <g data-name="Group 11924">
        <path data-name="Path 4877" d="M-3424.553 4077.821a12.2 12.2 0 0 1-4.657-.745 6.714 6.714 0 0 1-1.488-.908 1.588 1.588 0 0 1-.576-1.372 6.266 6.266 0 0 1 1.764-4.239c.3-.317.62-.352.883-.116a.6.6 0 0 1-.057.915 5.193 5.193 0 0 0-1.41 3c-.094.735.007 1.042.685 1.365a8.526 8.526 0 0 0 1.882.667 11.572 11.572 0 0 0 6.265-.311 5.848 5.848 0 0 0 1.16-.625.735.735 0 0 0 .322-.715 5.183 5.183 0 0 0-1.279-3.2c-.063-.072-.131-.14-.2-.21-.3-.322-.318-.637-.063-.886a.583.583 0 0 1 .884.079 5.647 5.647 0 0 1 1.427 2.3 11.535 11.535 0 0 1 .364 1.785 1.89 1.89 0 0 1-.892 1.873 6.746 6.746 0 0 1-2.89 1.1c-.831.136-1.68.193-2.124.243z" transform="translate(3431.275 -4062.867)" style="fill:#6a5ae0"/>
        <path data-name="Path 4878" d="M-3395.2 3975.279a4.029 4.029 0 0 1-4.042-4.032 4.026 4.026 0 0 1 4.022-4.014 4.023 4.023 0 0 1 4.023 4.013 4.027 4.027 0 0 1-4.003 4.033zm.011-6.9a2.879 2.879 0 0 0-2.9 2.814 2.878 2.878 0 0 0 2.824 2.929 2.876 2.876 0 0 0 2.919-2.833 2.875 2.875 0 0 0-2.845-2.905z" transform="translate(3401.544 -3967.232)" style="fill:#6a5ae0"/>
    </g>
</svg>
