<svg xmlns="http://www.w3.org/2000/svg" width="13.959" height="13.918" viewBox="0 0 13.959 13.918">
    <g data-name="Group 12066">
        <path data-name="Path 8645" d="M-4502.02 4241.059c.324.456.632.945 1 1.388a8.813 8.813 0 0 0 2.523 2.162.3.3 0 0 0 .436-.072c.273-.291.557-.573.855-.835a1.241 1.241 0 0 1 1.767.017 44.31 44.31 0 0 1 1.785 1.79 1.286 1.286 0 0 1 .02 1.84 15.662 15.662 0 0 1-1.178 1.2 2.452 2.452 0 0 1-2.25.475 9.331 9.331 0 0 1-3.233-1.364 13.945 13.945 0 0 1-5.409-6.12 6.631 6.631 0 0 1-.606-2.1 2.387 2.387 0 0 1 .722-2.1c.3-.279.573-.581.865-.866a1.352 1.352 0 0 1 2.067-.023q.8.772 1.576 1.577a1.338 1.338 0 0 1 .008 2.063c-.293.309-.597.609-.948.968zm5.729 7.252a1.414 1.414 0 0 0 1.105-.488c.265-.285.542-.558.815-.836.412-.42.416-.671.007-1.083q-.746-.753-1.5-1.5a.568.568 0 0 0-.954 0c-.317.31-.626.629-.943.939a.588.588 0 0 1-.81.123 10.753 10.753 0 0 1-1.245-.768 9.415 9.415 0 0 1-2.894-3.368.652.652 0 0 1 .181-.918c.3-.29.6-.58.891-.877a.562.562 0 0 0 0-.936q-.781-.794-1.575-1.577a.57.57 0 0 0-.922 0c-.333.32-.656.651-.981.979a1.449 1.449 0 0 0-.412 1.031 4.3 4.3 0 0 0 .376 1.767 13.024 13.024 0 0 0 6.569 6.9 5.657 5.657 0 0 0 2.291.612z" transform="translate(4506.332 -4235.186)" style="fill:#6a5ae0"/>
        <path data-name="Path 8646" d="M-4477 4239.755c-.113.11-.208.264-.344.319a.335.335 0 0 1-.46-.218c-.069-.195-.095-.4-.152-.6a6.653 6.653 0 0 0-5.188-4.924c-.062-.014-.125-.022-.186-.04a.388.388 0 0 1-.3-.492.393.393 0 0 1 .488-.277 7.205 7.205 0 0 1 2.171.747 7.461 7.461 0 0 1 3.9 5.3l.029.132z" transform="translate(4490.96 -4233.51)" style="fill:#6a5ae0"/>
        <path data-name="Path 8647" d="M-4479.823 4245.111a.374.374 0 0 1-.3.405.366.366 0 0 1-.456-.244c-.045-.116-.056-.246-.092-.368a3.738 3.738 0 0 0-2.785-2.726c-.07-.018-.142-.029-.211-.047a.4.4 0 0 1-.338-.448.37.37 0 0 1 .477-.321 7.655 7.655 0 0 1 1.514.561 4.394 4.394 0 0 1 2.163 2.983c.013.072.019.143.028.205z" transform="translate(4491.204 -4238.821)" style="fill:#6a5ae0"/>
    </g>
</svg>
