<svg xmlns="http://www.w3.org/2000/svg" width="14.217" height="11.258" viewBox="0 0 14.217 11.258">
    <g data-name="Group 12142">
        <g data-name="Path 8691" style="fill:none">
            <path d="M-1687.685 566.92a1.8 1.8 0 0 0 1.039-1.295c.5-1.779 1.029-3.55 1.547-5.324a1.317 1.317 0 0 1 1.42-1.069c2.722 0 5.443.014 8.165-.01a.944.944 0 0 1 .965 1.271c-.536 1.769-1.039 3.547-1.559 5.321a1.426 1.426 0 0 1-1.442 1.113q-5.013.007-10.026 0c-.037.002-.073-.004-.109-.007z" style="stroke:none" transform="translate(1688.714 -555.673)"/>
            <path d="M-1682.323 566.18c1.905 0 3.377 0 4.772-.003.384 0 .607-.177.723-.574l.522-1.794c.335-1.159.683-2.357 1.039-3.533.03-.097.026-.18-.008-.225-.036-.05-.122-.08-.228-.08h-.005c-1.07.01-2.203.015-3.673.015-1.363 0-2.725-.004-4.087-.004h-.411c-.429 0-.58.114-.7.529l-.426 1.453c-.372 1.266-.757 2.575-1.12 3.864-.035.123-.074.24-.117.352h3.719m0 .75h-5.253c-.037 0-.073-.007-.11-.01.59-.25.873-.706 1.04-1.295.5-1.78 1.029-3.55 1.547-5.324.215-.736.652-1.069 1.42-1.069 1.5 0 2.998.004 4.498.004 1.222 0 2.444-.003 3.666-.014h.012c.713 0 1.166.57.954 1.271-.536 1.769-1.04 3.547-1.56 5.321-.207.71-.718 1.112-1.441 1.113-1.591.003-3.182.003-4.773.003z" style="fill:#858494;stroke:none" transform="translate(1688.714 -555.673)"/>
        </g>
        <g data-name="Path 8692" style="fill:none">
            <path d="M-1680.625 543.674H-1688a1.915 1.915 0 0 0-2 1.5l-1.6 5.484a.885.885 0 0 1-.732.706.593.593 0 0 1-.713-.556c-.005-.074 0-.148 0-.222v-8.53a1.2 1.2 0 0 1 1.354-1.346c1.037 0 2.075.006 3.112 0a1.576 1.576 0 0 1 1.3.619c.835 1.013.475.845 1.8.854 1.195.008 2.389 0 3.584 0a1.209 1.209 0 0 1 1.27 1.491z" style="stroke:none" transform="translate(1693.051 -540.711)"/>
            <path d="M-1688.566 541.46h-.012c-.354.004-.737.005-1.206.005l-1.688-.002h-.223c-.48 0-.605.123-.605.597v8.311c.444-1.53.899-3.084 1.338-4.587l.24-.817c.385-1.317 1.35-2.042 2.719-2.043h1.534c-.534-.062-.753-.31-1.103-.755-.08-.103-.172-.22-.29-.362-.203-.246-.407-.346-.704-.346m0-.75c.532 0 .944.209 1.283.619.81.983.497.854 1.68.854h.115c.968.007 1.936.002 2.903.002h.681c.881.004 1.382.577 1.279 1.488h-7.377c-1.034 0-1.71.509-2 1.503-.535 1.828-1.071 3.656-1.602 5.485-.11.38-.328.637-.731.706a.592.592 0 0 1-.713-.557c-.005-.073-.002-.148-.002-.222v-8.53c0-.89.458-1.345 1.354-1.346l1.912.002c.4 0 .8 0 1.2-.004h.018z" style="fill:#858494;stroke:none" transform="translate(1693.051 -540.711)"/>
        </g>
    </g>
</svg>
