<svg xmlns="http://www.w3.org/2000/svg" width="14.05" height="11.125" viewBox="0 0 14.05 11.125">
    <g data-name="Group 12129">
        <path data-name="Path 8691" d="M-1687.685 566.829a1.774 1.774 0 0 0 1.026-1.28c.5-1.758 1.017-3.508 1.529-5.261a1.3 1.3 0 0 1 1.4-1.056c2.69 0 5.379.014 8.069-.01a.933.933 0 0 1 .954 1.256c-.529 1.748-1.027 3.505-1.54 5.258a1.409 1.409 0 0 1-1.425 1.1q-4.954.007-9.908 0c-.033.003-.069-.004-.105-.007z" transform="translate(1688.702 -555.715)" style="fill:#fff"/>
        <path data-name="Path 8692" d="M-1680.772 543.639h-7.291a1.892 1.892 0 0 0-1.976 1.486q-.793 2.709-1.582 5.42a.875.875 0 0 1-.723.7.586.586 0 0 1-.7-.549c-.005-.073 0-.146 0-.22v-8.429a1.185 1.185 0 0 1 1.338-1.33c1.025 0 2.05.006 3.075 0a1.558 1.558 0 0 1 1.285.612c.825 1 .47.835 1.775.844 1.181.008 2.361 0 3.542 0a1.194 1.194 0 0 1 1.257 1.466z" transform="translate(1693.051 -540.711)" style="fill:#fff"/>
    </g>
</svg>
