<svg xmlns="http://www.w3.org/2000/svg" width="21.428" height="21.115" viewBox="0 0 21.428 21.115">
    <g data-name="Group 12114">
        <path data-name="Path 8680" d="M-1403.206 276.169h-3.692a.218.218 0 0 1-.246-.174q-1.462-4.015-2.933-8.026a1.271 1.271 0 0 1 .331-1.46 1.266 1.266 0 0 1 1.47-.164l18.936 9.467a.982.982 0 0 1 .592.931.981.981 0 0 1-.59.932l-14.794 7.4c-1.387.693-2.771 1.391-4.161 2.081a1.278 1.278 0 0 1-1.85-.826 1.409 1.409 0 0 1 .078-.843q1.436-3.915 2.865-7.833c.12-.327.119-.327.463-.327H-1399.436a.582.582 0 0 0 .535-.574.581.581 0 0 0-.532-.576c-.1-.009-.2 0-.307 0z" transform="translate(1410.176 -266.188)" style="fill:#fff"/>
    </g>
</svg>
