<svg xmlns="http://www.w3.org/2000/svg" width="14.049" height="13.364" viewBox="0 0 14.049 13.364">
    <g data-name="Group 12128">
        <path data-name="Path 8690" d="M-1910.534 586.386c.042-.139.077-.28.128-.416a1.827 1.827 0 0 0-1.375-2.49c-.715-.146-.917-.33-.948-1.075a16.1 16.1 0 0 1 .065-2.015.821.821 0 0 1 .779-.783 1.828 1.828 0 0 0 1.516-2.518.82.82 0 0 1 .324-1.034 19.552 19.552 0 0 1 1.809-1.014.819.819 0 0 1 1.075.263 1.826 1.826 0 0 0 2.846 0 .869.869 0 0 1 1.079-.269 6.664 6.664 0 0 1 1.922 1.11.864.864 0 0 1 .323 1.065 1.827 1.827 0 0 0 1.417 2.448.918.918 0 0 1 .788.821 6.356 6.356 0 0 1-.025 2.335.919.919 0 0 1-.84.739 1.713 1.713 0 0 0-1.464 1.448 2.306 2.306 0 0 0 .077.977.9.9 0 0 1-.349 1.159 16.993 16.993 0 0 1-1.657.989.839.839 0 0 1-1.147-.262 1.823 1.823 0 0 0-2.934.046.865.865 0 0 1-1.115.307 6.863 6.863 0 0 1-1.921-1.112.935.935 0 0 1-.373-.719zm4.8-7.114a2.353 2.353 0 0 0-2.348 2.358 2.353 2.353 0 0 0 2.365 2.341 2.354 2.354 0 0 0 2.333-2.374 2.352 2.352 0 0 0-2.355-2.325z" transform="translate(1912.739 -574.937)" style="fill:#fff"/>
    </g>
</svg>
